<mxfile host="app.diagrams.net" modified="2023-08-19T06:50:34.478Z" agent="Mozilla/5.0 (Windows NT 10.0; Win64; x64) AppleWebKit/537.36 (KHTML, like Gecko) Chrome/115.0.0.0 Safari/537.36 Edg/115.0.1901.203" etag="xdanyh51NuZR7NjTuc0l" version="21.6.8" type="device">
  <diagram id="YKBjTKGMOBF2p5uhFZQw" name="Statemachine">
    <mxGraphModel dx="1000" dy="698" grid="1" gridSize="10" guides="1" tooltips="1" connect="1" arrows="1" fold="1" page="1" pageScale="1" pageWidth="850" pageHeight="1100" math="0" shadow="0">
      <root>
        <mxCell id="0" />
        <mxCell id="1" parent="0" />
        <mxCell id="twPTelytEAIwxnEzPvE8-1" value="sm" style="shape=umlFrame;whiteSpace=wrap;html=1;rounded=1;shadow=0;comic=0;labelBackgroundColor=none;strokeWidth=1;fontFamily=Verdana;fontSize=12;align=center;" parent="1" vertex="1">
          <mxGeometry x="30" y="30" width="1050" height="530" as="geometry" />
        </mxCell>
        <mxCell id="twPTelytEAIwxnEzPvE8-2" value="A" style="rounded=1;whiteSpace=wrap;html=1;arcSize=24;fillColor=#ffffc0;strokeColor=#ff0000;shadow=0;comic=0;labelBackgroundColor=none;fontFamily=Verdana;fontSize=12;fontColor=#000000;align=center;verticalAlign=top;" parent="1" vertex="1">
          <mxGeometry x="160" y="120" width="200" height="320" as="geometry" />
        </mxCell>
        <mxCell id="twPTelytEAIwxnEzPvE8-3" value="B" style="rounded=1;whiteSpace=wrap;html=1;arcSize=24;fillColor=#ffffc0;strokeColor=#ff0000;shadow=0;comic=0;labelBackgroundColor=none;fontFamily=Verdana;fontSize=12;fontColor=#000000;align=center;verticalAlign=top;" parent="1" vertex="1">
          <mxGeometry x="480" y="120" width="200" height="320" as="geometry" />
        </mxCell>
        <mxCell id="twPTelytEAIwxnEzPvE8-8" style="edgeStyle=orthogonalEdgeStyle;rounded=0;orthogonalLoop=1;jettySize=auto;html=1;" parent="1" source="twPTelytEAIwxnEzPvE8-9" target="twPTelytEAIwxnEzPvE8-2" edge="1">
          <mxGeometry relative="1" as="geometry" />
        </mxCell>
        <mxCell id="twPTelytEAIwxnEzPvE8-9" value="" style="ellipse;html=1;shape=startState;fillColor=#000000;strokeColor=#ff0000;rounded=1;shadow=0;comic=0;labelBackgroundColor=none;fontFamily=Verdana;fontSize=12;fontColor=#000000;align=center;direction=south;" parent="1" vertex="1">
          <mxGeometry x="160" y="40" width="30" height="30" as="geometry" />
        </mxCell>
        <mxCell id="3QdsNgIAZtOzLI_fTZXC-1" value="by Stefan Grimm, (C) 2023, licensed under the CC BY-SA 4.0 (internet: https://creativecommons.org/licenses/by-sa/4.0/)" style="text;html=1;strokeColor=none;fillColor=none;align=left;verticalAlign=middle;whiteSpace=wrap;rounded=0;fontSize=9;" parent="1" vertex="1">
          <mxGeometry x="30" y="570" width="500" height="20" as="geometry" />
        </mxCell>
        <mxCell id="_O_Is2bhzpRZIhhrAjC6-1" value="Triggers:&lt;br&gt;Next&lt;br&gt;Count" style="text;html=1;strokeColor=none;fillColor=none;align=left;verticalAlign=bottom;whiteSpace=wrap;rounded=0;" parent="1" vertex="1">
          <mxGeometry x="40" y="440" width="100" height="110" as="geometry" />
        </mxCell>
        <mxCell id="39VMVqUXp_07OLmze4wy-1" value="" style="ellipse;html=1;shape=endState;fillColor=#000000;strokeColor=#ff0000;direction=south;" parent="1" vertex="1">
          <mxGeometry x="565" y="500" width="30" height="30" as="geometry" />
        </mxCell>
        <mxCell id="SZ21oMpPWLER4ntVWx7g-1" style="edgeStyle=orthogonalEdgeStyle;rounded=0;orthogonalLoop=1;jettySize=auto;html=1;entryX=0;entryY=0.5;entryDx=0;entryDy=0;exitX=0.5;exitY=1;exitDx=0;exitDy=0;" parent="1" source="twPTelytEAIwxnEzPvE8-3" target="39VMVqUXp_07OLmze4wy-1" edge="1">
          <mxGeometry relative="1" as="geometry">
            <mxPoint x="310" y="475" as="sourcePoint" />
            <mxPoint x="489" y="300" as="targetPoint" />
          </mxGeometry>
        </mxCell>
        <mxCell id="SZ21oMpPWLER4ntVWx7g-2" value="Next" style="edgeStyle=orthogonalEdgeStyle;rounded=0;orthogonalLoop=1;jettySize=auto;html=1;exitX=1;exitY=0.25;exitDx=0;exitDy=0;entryX=0;entryY=0.25;entryDx=0;entryDy=0;" parent="1" source="twPTelytEAIwxnEzPvE8-2" target="twPTelytEAIwxnEzPvE8-3" edge="1">
          <mxGeometry x="-0.0667" y="10" relative="1" as="geometry">
            <mxPoint x="270" y="450" as="sourcePoint" />
            <mxPoint x="270" y="510" as="targetPoint" />
            <mxPoint as="offset" />
          </mxGeometry>
        </mxCell>
        <mxCell id="ea2AeBFG8Xzcf-FbsPGn-1" value="C" style="rounded=1;whiteSpace=wrap;html=1;arcSize=24;fillColor=#ffffc0;strokeColor=#ff0000;shadow=0;comic=0;labelBackgroundColor=none;fontFamily=Verdana;fontSize=12;fontColor=#000000;align=center;verticalAlign=top;" parent="1" vertex="1">
          <mxGeometry x="800" y="120" width="200" height="320" as="geometry" />
        </mxCell>
        <mxCell id="ea2AeBFG8Xzcf-FbsPGn-2" value="" style="ellipse;html=1;shape=endState;fillColor=#000000;strokeColor=#ff0000;direction=south;" parent="1" vertex="1">
          <mxGeometry x="885" y="500" width="30" height="30" as="geometry" />
        </mxCell>
        <mxCell id="ea2AeBFG8Xzcf-FbsPGn-3" value="Check [counter &amp;gt; 3]" style="edgeStyle=orthogonalEdgeStyle;rounded=0;orthogonalLoop=1;jettySize=auto;html=1;entryX=0;entryY=0.5;entryDx=0;entryDy=0;exitX=0.5;exitY=1;exitDx=0;exitDy=0;" parent="1" source="ea2AeBFG8Xzcf-FbsPGn-1" target="ea2AeBFG8Xzcf-FbsPGn-2" edge="1">
          <mxGeometry y="60" relative="1" as="geometry">
            <mxPoint x="590" y="450" as="sourcePoint" />
            <mxPoint x="620" y="510" as="targetPoint" />
            <mxPoint as="offset" />
          </mxGeometry>
        </mxCell>
        <mxCell id="ea2AeBFG8Xzcf-FbsPGn-4" value="Next" style="edgeStyle=orthogonalEdgeStyle;rounded=0;orthogonalLoop=1;jettySize=auto;html=1;exitX=1;exitY=0.25;exitDx=0;exitDy=0;entryX=0;entryY=0.25;entryDx=0;entryDy=0;" parent="1" source="twPTelytEAIwxnEzPvE8-3" target="ea2AeBFG8Xzcf-FbsPGn-1" edge="1">
          <mxGeometry x="-0.0667" y="10" relative="1" as="geometry">
            <mxPoint x="370" y="210" as="sourcePoint" />
            <mxPoint x="490" y="210" as="targetPoint" />
            <mxPoint as="offset" />
          </mxGeometry>
        </mxCell>
        <mxCell id="5B1cqrxrc89oC-pRtuea-1" value="Count" style="endArrow=none;html=1;rounded=0;entryX=0;entryY=0.5;entryDx=0;entryDy=0;exitX=0;exitY=0.5;exitDx=0;exitDy=0;" parent="1" source="5B1cqrxrc89oC-pRtuea-2" target="ea2AeBFG8Xzcf-FbsPGn-1" edge="1">
          <mxGeometry x="-0.1111" y="-15" width="50" height="50" relative="1" as="geometry">
            <mxPoint x="900" y="250" as="sourcePoint" />
            <mxPoint x="812" y="250" as="targetPoint" />
            <Array as="points" />
            <mxPoint as="offset" />
          </mxGeometry>
        </mxCell>
        <mxCell id="5B1cqrxrc89oC-pRtuea-2" value="" style="whiteSpace=wrap;html=1;aspect=fixed;" parent="1" vertex="1">
          <mxGeometry x="860" y="275" width="10" height="10" as="geometry" />
        </mxCell>
      </root>
    </mxGraphModel>
  </diagram>
</mxfile>
